<svg width="64" height="64" viewBox="0 0 64 64" fill="none" xmlns="http://www.w3.org/2000/svg">
<path d="M59.4138 29.265C55.0115 26.7901 48.1209 26.8599 42.2675 27.5607C58.3474 22.8547 58.8747 14.7324 58.6648 13.3052C57.0777 2.3656 45.4886 5.85682 45.4886 5.85682C41.2596 -2.68149 30.113 -1.09555 27.1611 5.55538C24.9917 10.438 27.2006 17.4537 29.5374 22.6358C21.7392 10.6466 12.9653 11.487 11.433 11.8934C-0.638819 15.0723 5.21606 24.4957 5.21606 24.4957C-3.71657 29.5562 -0.0822216 38.9137 7.90031 40.3621C14.5897 41.5787 23.4602 37.4174 28.9282 34.3012C26.4414 38.0068 24.9713 39.6632 20.1462 44.7999C9.92557 53.4502 5.44499 59.1667 5.44499 59.1667C5.58396 61.6384 11.847 64.2279 13.3741 63.984C14.6131 63.7799 27.0741 47.4802 31.7872 38.0427C33.9127 52.5823 42.819 54.631 44.4478 54.734C57.0236 55.5603 55.4196 44.9221 55.4196 44.9221C65.8289 42.9963 66.2729 33.1255 59.4138 29.265Z" fill="#29AA29"/>
</svg>
