<svg width="379" height="64" viewBox="0 0 379 64" fill="none" xmlns="http://www.w3.org/2000/svg">
<path d="M50.3093 29.265C46.5816 26.7901 40.7469 26.8599 35.7905 27.5607C49.4063 22.8547 49.8529 14.7324 49.6751 13.3052C48.3312 2.3656 38.518 5.85682 38.518 5.85682C34.9371 -2.68149 25.4986 -1.09555 22.999 5.55538C21.1621 10.438 23.0324 17.4537 25.0112 22.6358C18.4079 10.6466 10.9785 11.487 9.68102 11.8934C-0.540928 15.0723 4.41676 24.4957 4.41676 24.4957C-3.14705 29.5562 -0.0696221 38.9137 6.68968 40.3621C12.354 41.5787 19.8652 37.4174 24.4953 34.3012C22.3896 38.0068 21.1447 39.6632 17.059 44.7999C8.40459 53.4502 4.61061 59.1667 4.61061 59.1667C4.72828 61.6384 10.0316 64.2279 11.3247 63.984C12.3738 63.7799 22.9253 47.4802 26.9162 38.0427C28.7159 52.5823 36.2575 54.631 37.6367 54.734C48.2854 55.5603 46.9272 44.9221 46.9272 44.9221C55.7414 42.9963 56.1173 33.1255 50.3093 29.265Z" fill="#FAFAFA"/>
<path d="M72.3042 3.34357H69.3926V60.6778H72.3042V3.34357Z" fill="#FAFAFA"/>
<path d="M86.839 47.2637C86.9443 46.0668 87.304 44.8699 87.9182 43.6731C88.5324 42.4762 89.2607 41.4969 90.103 40.7353C93.8584 43.0928 97.4208 44.2715 100.79 44.2715C102.264 44.2715 103.343 43.9269 104.028 43.2378C104.712 42.5487 105.054 41.6964 105.054 40.6809C105.054 38.9762 103.949 37.6342 101.738 36.655L95.5255 33.9348C93.1038 32.8104 91.2437 31.4594 89.9451 29.8817C88.6465 28.304 87.9972 26.3001 87.9972 23.8701C87.9972 22.2017 88.3218 20.6784 88.9711 19.3002C89.6204 17.9219 90.533 16.7251 91.7087 15.7095C92.8845 14.694 94.2796 13.9051 95.894 13.343C97.5085 12.7808 99.2985 12.4997 101.264 12.4997C105.195 12.4997 109.161 13.5334 113.162 15.6007C112.986 18.3934 112.039 20.5696 110.319 22.1292C106.739 20.352 103.58 19.4634 100.843 19.4634C99.4389 19.4634 98.3859 19.7898 97.684 20.4426C96.9821 21.0955 96.6311 21.839 96.6311 22.6732C96.6311 24.0877 97.6664 25.2302 99.7372 26.1006L106.055 28.8752C108.722 30.0358 110.714 31.5229 112.03 33.3363C113.346 35.1498 114.004 37.2534 114.004 39.6472C114.004 41.3518 113.706 42.9114 113.109 44.3259C112.513 45.7404 111.626 46.9645 110.451 47.9982C109.275 49.0318 107.81 49.8388 106.055 50.4191C104.3 50.9994 102.247 51.2896 99.8951 51.2896C95.3325 51.2896 90.9804 49.9476 86.839 47.2637V47.2637ZM127.166 40.3544C128.113 43.1834 130.026 44.5979 132.904 44.5979C134.343 44.5979 135.51 44.2262 136.405 43.4826C137.3 42.7391 138.002 41.7961 138.511 40.6537C139.02 39.5112 139.362 38.2327 139.537 36.8182C139.713 35.4037 139.801 34.0073 139.801 32.6291C139.801 31.3597 139.757 29.9452 139.669 28.3856C139.581 26.826 139.327 25.3662 138.906 24.0061C138.484 22.646 137.818 21.5035 136.905 20.5787C135.992 19.6538 134.659 19.1914 132.904 19.1914C131.219 19.1914 129.929 19.6357 129.034 20.5243C128.14 21.4128 127.473 22.51 127.034 23.8157C126.595 25.1214 126.323 26.5087 126.218 27.9776C126.113 29.4465 126.06 30.7431 126.06 31.8674C126.06 33.5358 126.139 35.0229 126.297 36.3286C126.455 37.6342 126.744 38.9762 127.166 40.3544V40.3544ZM122.901 47.8622C119.146 44.6342 117.268 39.3208 117.268 31.9218C117.268 28.7302 117.628 25.9284 118.347 23.5165C119.067 21.1046 120.102 19.0826 121.454 17.4504C122.805 15.8183 124.446 14.5852 126.376 13.751C128.306 12.9168 130.482 12.4997 132.904 12.4997C135.326 12.4997 137.51 12.9168 139.458 13.751C141.406 14.5852 143.056 15.8274 144.407 17.4776C145.758 19.1279 146.794 21.159 147.513 23.5709C148.233 25.9828 148.592 28.7664 148.592 31.9218C148.592 35.0773 148.233 37.8609 147.513 40.2728C146.794 42.6847 145.758 44.7067 144.407 46.3388C143.056 47.971 141.406 49.2041 139.458 50.0383C137.51 50.8725 135.326 51.2896 132.904 51.2896C128.903 51.2896 125.569 50.1471 122.901 47.8622V47.8622ZM180.285 24.795C180.285 25.9918 180.11 27.1252 179.759 28.1952C179.408 29.2651 178.943 30.2263 178.363 31.0786C177.784 31.9309 177.1 32.6744 176.31 33.3091C175.521 33.9439 174.705 34.4244 173.862 34.7508C175.687 35.44 177.039 37.1083 177.916 39.756L179.495 44.3803C180.092 46.1938 180.969 47.5357 182.128 48.4062C181.601 49.1316 180.811 49.7391 179.759 50.2287C178.706 50.7184 177.547 50.9632 176.284 50.9632C175.02 50.9632 174.038 50.5914 173.336 49.8479C172.634 49.1044 171.985 47.8077 171.388 45.958L169.493 40.2456C169.107 39.1575 168.589 38.3234 167.94 37.743C167.29 37.1627 166.316 36.8726 165.018 36.8726H162.859V50.4735C161.736 50.6911 160.332 50.8 158.648 50.8C156.963 50.8 155.577 50.6911 154.489 50.4735V13.5878L154.857 13.2069C157.911 13.1344 160.482 13.08 162.57 13.0437C164.658 13.0075 166.299 12.9893 167.492 12.9893C169.422 12.9893 171.177 13.2341 172.757 13.7238C174.336 14.2134 175.679 14.9479 176.784 15.9271C177.89 16.9064 178.75 18.1396 179.364 19.6266C179.978 21.1136 180.285 22.8364 180.285 24.795ZM162.859 19.5178V30.1809C164.439 30.1809 165.79 30.1537 166.913 30.0993C168.036 30.0449 168.94 29.8273 169.624 29.4465C170.309 29.0656 170.826 28.5307 171.177 27.8416C171.528 27.1524 171.704 26.155 171.704 24.8494C171.704 21.3312 170.054 19.5722 166.755 19.5722H164.57C164.57 19.5722 164 19.5541 162.859 19.5178V19.5178ZM199.975 20.497L200.027 24.5229V50.4735C198.834 50.6911 197.412 50.8 195.763 50.8C194.113 50.8 192.727 50.6911 191.604 50.4735V20.497L188.235 20.5515H182.812C182.601 19.4996 182.496 18.2937 182.496 16.9336C182.496 15.5735 182.601 14.3676 182.812 13.3158H208.872C209.152 14.2588 209.293 15.4012 209.293 16.7432C209.293 18.0851 208.942 19.0554 208.24 19.6538C207.538 20.2522 206.415 20.5515 204.871 20.5515H203.344L200.027 20.497H199.975ZM221.454 39.484L221.401 43.401V43.4554C223.016 43.3829 224.314 43.3466 225.297 43.3466H237.511C237.511 44.6886 237.458 45.7223 237.353 46.4477C236.932 49.2404 235.142 50.6367 231.983 50.6367H217.979C216.47 50.6367 215.286 50.1834 214.426 49.2767C213.566 48.3699 213.136 47.1368 213.136 45.5772V13.6966L213.504 13.3158H236.195C236.405 14.3676 236.511 15.51 236.511 16.7432C236.511 17.9763 236.265 19.2639 235.774 20.6059H221.401L221.454 24.5229V28.3312C222.366 28.2949 223.56 28.2768 225.034 28.2768H233.089C233.405 29.2923 233.562 30.4529 233.562 31.7586C233.562 33.0643 233.405 34.2612 233.089 35.3493H221.454V39.484V39.484ZM243.46 50.4735V13.3158C244.548 13.0981 245.952 12.9893 247.671 12.9893C249.391 12.9893 250.813 13.0981 251.936 13.3158V50.4735C250.813 50.6911 249.391 50.8 247.671 50.8C245.952 50.8 244.548 50.6911 243.46 50.4735ZM268.309 39.484L268.256 43.401V43.4554C269.87 43.3829 271.169 43.3466 272.152 43.3466H284.366C284.366 44.6886 284.313 45.7223 284.208 46.4477C283.786 49.2404 281.996 50.6367 278.838 50.6367H264.834C263.325 50.6367 262.14 50.1834 261.28 49.2767C260.421 48.3699 259.991 47.1368 259.991 45.5772V13.6966L260.359 13.3158H283.049C283.26 14.3676 283.365 15.51 283.365 16.7432C283.365 17.9763 283.12 19.2639 282.628 20.6059H268.256L268.309 24.5229V28.3312C269.221 28.2949 270.414 28.2768 271.888 28.2768H279.943C280.259 29.2923 280.417 30.4529 280.417 31.7586C280.417 33.0643 280.259 34.2612 279.943 35.3493H268.309V39.484V39.484ZM303.529 39.212H288.682C288.472 38.3052 288.367 37.1718 288.367 35.8117C288.367 34.4516 288.472 33.3182 288.682 32.4115H303.529C303.739 33.3182 303.844 34.4516 303.844 35.8117C303.844 37.1718 303.739 38.3052 303.529 39.212ZM308.898 50.3647L311.689 13.3702C313.233 13.08 315.058 12.9349 317.164 12.9349C319.27 12.9349 321.112 13.08 322.692 13.3702L325.798 26.6991C327.026 32.7198 327.675 36.0021 327.746 36.5462H328.114C328.254 35.6394 328.904 32.3571 330.062 26.6991L333.221 13.3702C334.765 13.08 336.59 12.9349 338.696 12.9349C340.802 12.9349 342.644 13.08 344.224 13.3702L347.014 50.3647C345.926 50.6549 344.583 50.8 342.986 50.8C341.39 50.8 340.082 50.7093 339.064 50.5279L338.222 35.4037C337.976 29.383 337.836 25.1939 337.801 22.8364H337.485L332.273 44.9788C331.01 45.1964 329.562 45.3052 327.93 45.3052C326.298 45.3052 324.85 45.1964 323.587 44.9788L318.427 22.8364H318.059C318.059 26.0644 317.918 30.2535 317.638 35.4037L316.848 50.5279C315.83 50.7093 314.523 50.8 312.926 50.8C311.329 50.8 309.986 50.6549 308.898 50.3647ZM362.123 39.484L362.071 43.401V43.4554C363.685 43.3829 364.984 43.3466 365.966 43.3466H378.18C378.18 44.6886 378.127 45.7223 378.022 46.4477C377.601 49.2404 375.811 50.6367 372.652 50.6367H358.649C357.139 50.6367 355.955 50.1834 355.095 49.2767C354.235 48.3699 353.805 47.1368 353.805 45.5772V13.6966L354.174 13.3158H376.864C377.075 14.3676 377.18 15.51 377.18 16.7432C377.18 17.9763 376.934 19.2639 376.443 20.6059H362.071L362.123 24.5229V28.3312C363.036 28.2949 364.229 28.2768 365.703 28.2768H373.758C374.074 29.2923 374.232 30.4529 374.232 31.7586C374.232 33.0643 374.074 34.2612 373.758 35.3493H362.123V39.484V39.484Z" fill="#FAFAFA"/>
</svg>
